<svg width="84" height="84" viewBox="0 0 84 84" fill="none" xmlns="http://www.w3.org/2000/svg">
<path d="M41.6667 0C18.7083 0 0 18.7083 0 41.6667C0 64.625 18.7083 83.3333 41.6667 83.3333C64.625 83.3333 83.3333 64.625 83.3333 41.6667C83.3333 18.7083 64.625 0 41.6667 0ZM58.3333 44.7917H44.7917V58.3333C44.7917 60.0417 43.375 61.4583 41.6667 61.4583C39.9583 61.4583 38.5417 60.0417 38.5417 58.3333V44.7917H25C23.2917 44.7917 21.875 43.375 21.875 41.6667C21.875 39.9583 23.2917 38.5417 25 38.5417H38.5417V25C38.5417 23.2917 39.9583 21.875 41.6667 21.875C43.375 21.875 44.7917 23.2917 44.7917 25V38.5417H58.3333C60.0417 38.5417 61.4583 39.9583 61.4583 41.6667C61.4583 43.375 60.0417 44.7917 58.3333 44.7917Z" fill="#EE3131"/>
</svg>
