<svg width="140" height="128" viewBox="0 0 140 128" fill="none" xmlns="http://www.w3.org/2000/svg">
<path d="M98.2216 125H23.201C12.1553 125 3.20097 116.046 3.20097 105V102.444H4.55839C13.9472 102.444 21.5584 94.8326 21.5584 85.4438V46.5935C21.5584 37.2047 13.9472 29.5935 4.55839 29.5935H3.48781V23.3796C3.48781 12.3339 12.4421 3.37964 23.4878 3.37964H97.9348C108.98 3.37964 117.935 12.3339 117.935 23.3796V29.5935H119.579C128.968 29.5935 136.579 37.2047 136.579 46.5935V85.4438C136.579 94.8326 128.968 102.444 119.579 102.444H118.222V105C118.222 116.046 109.267 125 98.2216 125Z" fill="#2E9AD1" stroke="#172585" stroke-width="5"/>
</svg>
