<svg width="238" height="205" viewBox="0 0 238 205" fill="none" xmlns="http://www.w3.org/2000/svg">
<path d="M183.5 202.5H23C11.9543 202.5 3 193.546 3 182.5V165.5H18C27.3888 165.5 35 157.889 35 148.5V63C35 53.6112 27.3888 46 18 46H3.5V23C3.5 11.9543 12.4543 3 23.5 3H183C194.046 3 203 11.9543 203 23V46H218.5C227.889 46 235.5 53.6112 235.5 63V148.5C235.5 157.889 227.889 165.5 218.5 165.5H203.5V182.5C203.5 193.546 194.546 202.5 183.5 202.5Z" fill="#2E9AD1" stroke="#172585" stroke-width="5"/>
<g filter="url(#filter0_d_591_8)">
<path d="M115.681 48C108.55 47.9992 101.528 49.7972 95.227 53.237C88.9262 56.6768 83.5385 61.6538 79.5347 67.7332C75.5309 73.8126 73.0327 80.8096 72.2583 88.113C71.4839 95.4164 72.4569 102.804 75.0922 109.631C77.7276 116.458 81.9451 122.516 87.3765 127.276C92.8079 132.036 99.288 135.354 106.251 136.94C113.213 138.525 120.447 138.33 127.32 136.372C134.192 134.413 140.495 130.75 145.677 125.704C147.425 124.015 149.031 122.177 150.479 120.21L137.86 110.349C136.943 111.598 135.923 112.764 134.812 113.832C130.282 118.255 124.442 120.983 118.228 121.578C112.014 122.172 105.787 120.599 100.544 117.111C95.3013 113.623 91.3476 108.422 89.3171 102.342C87.2866 96.262 87.2969 89.6555 89.3463 83.5822C91.3958 77.509 95.3657 72.3209 100.619 68.8501C105.873 65.3794 112.105 63.8272 118.317 64.4424C124.529 65.0576 130.361 67.8046 134.877 72.2429C139.392 76.6811 142.33 82.5533 143.219 88.9176H135.33L150.768 108.934L166.997 88.9176H159.163C158.165 77.7425 153.153 67.354 145.111 59.7858C137.068 52.2175 126.573 48.0147 115.681 48Z" fill="white"/>
<path d="M150.797 106.516L138.381 90.4176H143.219H144.943L144.705 88.7101C143.771 82.0237 140.683 75.8468 135.928 71.1731C131.172 66.4986 125.023 63.5992 118.465 62.9497C111.907 62.3002 105.331 63.9397 99.7923 67.5986C94.2549 71.2569 90.0792 76.7192 87.9251 83.1026C85.7711 89.4855 85.7603 96.4272 87.8943 102.817C90.0285 109.208 94.1872 114.684 99.713 118.36C105.24 122.037 111.811 123.699 118.371 123.071C124.929 122.443 131.085 119.566 135.855 114.909C136.657 114.138 137.414 113.319 138.121 112.457L148.387 120.479C147.227 121.946 145.974 123.331 144.635 124.625L144.631 124.629C139.624 129.505 133.539 133.039 126.909 134.929C120.278 136.818 113.3 137.007 106.584 135.477C99.8668 133.948 93.6115 130.746 88.3652 126.148C83.1187 121.55 79.0408 115.694 76.4916 109.091C73.9423 102.487 73.0006 95.3387 73.75 88.2712C74.4993 81.2037 76.9166 74.4358 80.7875 68.5582C84.6582 62.6809 89.8636 57.874 95.9458 54.5536C102.027 51.2335 108.803 49.4994 115.68 49.5C126.185 49.5144 136.314 53.5674 144.083 60.8782C151.853 68.1902 156.703 78.2356 157.669 89.0512L157.792 90.4176H159.163H163.85L150.797 106.516Z" stroke="#172585" stroke-width="3"/>
</g>
<defs>
<filter id="filter0_d_591_8" x="68" y="48" width="102.997" height="98" filterUnits="userSpaceOnUse" color-interpolation-filters="sRGB">
<feFlood flood-opacity="0" result="BackgroundImageFix"/>
<feColorMatrix in="SourceAlpha" type="matrix" values="0 0 0 0 0 0 0 0 0 0 0 0 0 0 0 0 0 0 127 0" result="hardAlpha"/>
<feOffset dy="4"/>
<feGaussianBlur stdDeviation="2"/>
<feComposite in2="hardAlpha" operator="out"/>
<feColorMatrix type="matrix" values="0 0 0 0 0 0 0 0 0 0 0 0 0 0 0 0 0 0 0.25 0"/>
<feBlend mode="normal" in2="BackgroundImageFix" result="effect1_dropShadow_591_8"/>
<feBlend mode="normal" in="SourceGraphic" in2="effect1_dropShadow_591_8" result="shape"/>
</filter>
</defs>
</svg>
