<svg width="238" height="205" viewBox="0 0 238 205" fill="none" xmlns="http://www.w3.org/2000/svg">
<path d="M183.5 202.5H23C11.9543 202.5 3 193.546 3 182.5V165.5H18C27.3888 165.5 35 157.889 35 148.5V63C35 53.6112 27.3888 46 18 46H3.5V23C3.5 11.9543 12.4543 3 23.5 3H183C194.046 3 203 11.9543 203 23V46H218.5C227.889 46 235.5 53.6112 235.5 63V148.5C235.5 157.889 227.889 165.5 218.5 165.5H203.5V182.5C203.5 193.546 194.546 202.5 183.5 202.5Z" fill="#2E9AD1" stroke="#172585" stroke-width="5"/>
<g filter="url(#filter0_d_165_16)">
<path d="M153.549 115.705C152.647 113.631 150.521 112.278 148.162 112.277L133.995 112.27L134.022 58.863C134.024 56.1814 131.786 54.0066 129.025 54.0052L109.025 53.9949C106.263 53.9935 104.024 56.166 104.022 58.8475L103.995 112.254L89.8285 112.247C87.469 112.246 85.3413 113.597 84.4372 115.67C83.5336 117.743 84.0314 120.13 85.6986 121.717L114.851 149.476C117.128 151.644 120.821 151.646 123.101 149.48L152.281 121.752C153.951 120.166 154.451 117.779 153.549 115.705Z" fill="white"/>
<path d="M131.494 114.769L131.495 112.269L131.522 58.8617C131.523 57.6297 130.474 56.506 129.024 56.5052L109.024 56.4949C107.573 56.4942 106.523 57.6168 106.522 58.8488L106.495 112.256L106.494 114.756L103.994 114.754L89.8272 114.747C88.4068 114.746 87.2137 115.558 86.729 116.669C86.2552 117.756 86.4975 119.026 87.4226 119.907L131.494 114.769ZM131.494 114.769L133.994 114.77L148.16 114.777C149.581 114.778 150.773 115.591 151.256 116.702C151.729 117.789 151.486 119.059 150.559 119.939L121.379 147.668C121.379 147.668 121.379 147.668 121.379 147.668C120.065 148.916 117.887 148.915 116.575 147.666C116.575 147.666 116.575 147.666 116.575 147.666L87.4227 119.907L131.494 114.769Z" stroke="#172585" stroke-width="5"/>
</g>
<defs>
<filter id="filter0_d_165_16" x="79.9922" y="53.9949" width="78" height="105.109" filterUnits="userSpaceOnUse" color-interpolation-filters="sRGB">
<feFlood flood-opacity="0" result="BackgroundImageFix"/>
<feColorMatrix in="SourceAlpha" type="matrix" values="0 0 0 0 0 0 0 0 0 0 0 0 0 0 0 0 0 0 127 0" result="hardAlpha"/>
<feOffset dy="4"/>
<feGaussianBlur stdDeviation="2"/>
<feComposite in2="hardAlpha" operator="out"/>
<feColorMatrix type="matrix" values="0 0 0 0 0 0 0 0 0 0 0 0 0 0 0 0 0 0 0.25 0"/>
<feBlend mode="normal" in2="BackgroundImageFix" result="effect1_dropShadow_165_16"/>
<feBlend mode="normal" in="SourceGraphic" in2="effect1_dropShadow_165_16" result="shape"/>
</filter>
</defs>
</svg>
