<svg width="238" height="205" viewBox="0 0 238 205" fill="none" xmlns="http://www.w3.org/2000/svg">
<path d="M183.5 202.5H23C11.9543 202.5 3 193.546 3 182.5V165.5H18C27.3888 165.5 35 157.889 35 148.5V63C35 53.6112 27.3888 46 18 46H3.5V23C3.5 11.9543 12.4543 3 23.5 3H183C194.046 3 203 11.9543 203 23V46H218.5C227.889 46 235.5 53.6112 235.5 63V148.5C235.5 157.889 227.889 165.5 218.5 165.5H203.5V182.5C203.5 193.546 194.546 202.5 183.5 202.5Z" fill="#2E9AD1" stroke="#172585" stroke-width="5"/>
<g filter="url(#filter0_d_165_13)">
<path d="M119.504 64.5485C120.706 64.0249 122.037 63.871 123.328 64.1091C124.619 64.347 125.804 64.9647 126.74 65.8746L158.471 96.7214C159.117 97.3494 159.627 98.1006 159.975 98.9276C160.322 99.7546 160.5 100.642 160.5 101.538C160.5 102.433 160.322 103.321 159.975 104.148C159.627 104.975 159.116 105.727 158.47 106.355L126.74 137.202C125.804 138.112 124.619 138.729 123.328 138.967C122.037 139.205 120.706 139.051 119.504 138.527C118.303 138.004 117.289 137.138 116.581 136.045C115.874 134.954 115.5 133.681 115.5 132.384V120.388C106.895 120.763 101.491 122.456 97.4083 124.926C92.6464 127.807 89.2981 131.937 84.6689 137.683C83.6707 138.922 82.0008 139.396 80.5017 138.866C79.0025 138.336 78 136.918 78 135.326C78 121.967 79.8799 108.893 86.0794 99.0661C91.9716 89.7268 101.47 83.7759 115.5 82.8862V70.6912C115.5 69.3949 115.874 68.1222 116.581 67.0305C117.289 65.9382 118.303 65.0718 119.504 64.5485Z" fill="white"/>
<path d="M120.503 66.8404L120.502 66.8406C119.756 67.1656 119.123 67.7053 118.679 68.3902C118.236 69.0745 118 69.8745 118 70.6912C118 70.6914 118 70.6917 118 70.6919V82.8862V85.2327L115.658 85.3812C102.358 86.2246 93.6215 91.797 88.1938 100.4C82.3766 109.621 80.5 122.114 80.5 135.326C80.5 135.859 80.8354 136.332 81.3345 136.509C81.8329 136.685 82.389 136.528 82.7222 136.114L82.7947 136.024C87.3286 130.397 90.9353 125.92 96.1143 122.787L97.4083 124.926L96.1143 122.787C100.651 120.043 106.494 118.278 115.391 117.89L118 117.777V120.388V132.384C118 132.384 118 132.384 118 132.384C118 133.201 118.236 134.001 118.679 134.686L120.503 66.8404ZM120.503 66.8404C121.249 66.5152 122.074 66.4201 122.874 66.5676L122.875 66.5677C123.674 66.7151 124.413 67.0985 124.997 67.6668L124.997 67.6671L156.728 98.5135C157.131 98.9053 157.451 99.3754 157.67 99.8955M120.503 66.8404L157.67 99.8955M157.67 99.8955C157.888 100.415 158 100.974 158 101.538C158 102.102 157.888 102.66 157.67 103.18C157.451 103.699 157.131 104.171 156.727 104.563L124.997 135.409C124.997 135.409 124.997 135.409 124.997 135.409C124.412 135.978 123.674 136.361 122.875 136.508L157.67 99.8955ZM120.502 136.235C121.249 136.56 122.074 136.656 122.874 136.508L120.502 136.235ZM120.502 136.235C119.756 135.91 119.123 135.371 118.679 134.686L120.502 136.235Z" stroke="#172585" stroke-width="5"/>
</g>
<defs>
<filter id="filter0_d_165_13" x="74" y="64" width="90.5" height="83.0803" filterUnits="userSpaceOnUse" color-interpolation-filters="sRGB">
<feFlood flood-opacity="0" result="BackgroundImageFix"/>
<feColorMatrix in="SourceAlpha" type="matrix" values="0 0 0 0 0 0 0 0 0 0 0 0 0 0 0 0 0 0 127 0" result="hardAlpha"/>
<feOffset dy="4"/>
<feGaussianBlur stdDeviation="2"/>
<feComposite in2="hardAlpha" operator="out"/>
<feColorMatrix type="matrix" values="0 0 0 0 0 0 0 0 0 0 0 0 0 0 0 0 0 0 0.25 0"/>
<feBlend mode="normal" in2="BackgroundImageFix" result="effect1_dropShadow_165_13"/>
<feBlend mode="normal" in="SourceGraphic" in2="effect1_dropShadow_165_13" result="shape"/>
</filter>
</defs>
</svg>
