<svg width="317" height="201" viewBox="0 0 317 201" fill="none" xmlns="http://www.w3.org/2000/svg">
<rect x="82.5" y="2.94287" width="195" height="195.213" rx="17.5" fill="#E0D131" stroke="#615B15" stroke-width="5"/>
<path d="M197.5 100.55C197.5 154.459 153.845 198.156 100 198.156C46.1548 198.156 2.5 154.459 2.5 100.55C2.5 46.6404 46.1548 2.94287 100 2.94287C153.845 2.94287 197.5 46.6404 197.5 100.55Z" fill="#E0D131" stroke="#615B15" stroke-width="5"/>
<path d="M104.777 5.00347C162.533 4.92532 193.433 6.17964 249.633 7.46416L251 191.524C192.443 194.03 159.792 196.363 100.677 195.953C100.677 195.953 47.0212 5.08163 104.777 5.00347Z" fill="#E0D131"/>
<mask id="mask0_22_255" style="mask-type:alpha" maskUnits="userSpaceOnUse" x="277" y="43" width="40" height="121">
<rect x="277" y="43.4888" width="40" height="120.128" fill="#D9D9D9"/>
</mask>
<g mask="url(#mask0_22_255)">
<path d="M276.423 46.9898H290.923C297.827 46.9898 303.423 52.5863 303.423 59.4898V142.61C303.423 149.514 297.827 155.11 290.923 155.11H276.423V46.9898Z" fill="#E0D131" stroke="#615B15" stroke-width="5"/>
</g>
<path d="M205.75 155.36H118.25C112.205 155.36 107.25 150.402 107.25 144.346V56.7529C107.25 50.6975 112.205 45.7396 118.25 45.7396H205.75C211.795 45.7396 216.75 50.6975 216.75 56.7529V144.346C216.75 150.402 211.795 155.36 205.75 155.36Z" fill="#F44336" stroke="black" stroke-width="3"/>
<path d="M150.5 123.611V77.4879L182.176 100.55L150.5 123.611Z" fill="white" stroke="black" stroke-width="2"/>
</svg>
