<svg width="238" height="205" viewBox="0 0 238 205" fill="none" xmlns="http://www.w3.org/2000/svg">
<path d="M183.5 202.5H23C11.9543 202.5 3 193.546 3 182.5V165.5H18C27.3888 165.5 35 157.889 35 148.5V63C35 53.6112 27.3888 46 18 46H3.5V23C3.5 11.9543 12.4543 3 23.5 3H183C194.046 3 203 11.9543 203 23V46H218.5C227.889 46 235.5 53.6112 235.5 63V148.5C235.5 157.889 227.889 165.5 218.5 165.5H203.5V182.5C203.5 193.546 194.546 202.5 183.5 202.5Z" fill="#2E9AD1" stroke="#172585" stroke-width="5"/>
<g filter="url(#filter0_d_165_16)">
<path d="M153.265 115.689C152.339 113.626 150.196 112.299 147.837 112.326L133.671 112.49L133.053 59.0871C133.022 56.4053 130.758 54.2573 127.997 54.2893L107.999 54.5207C105.237 54.5527 103.024 56.7525 103.055 59.4343L103.673 112.837L89.5072 113.001C87.1484 113.029 85.0372 114.405 84.1582 116.489C83.2793 118.573 83.8059 120.953 85.4921 122.521L114.978 149.925C117.281 152.066 120.974 152.023 123.228 149.83L152.071 121.75C153.721 120.144 154.192 117.752 153.265 115.689Z" fill="white"/>
<path d="M121.484 148.038L150.327 119.959C151.243 119.067 151.471 117.795 150.985 116.713C150.488 115.608 149.286 114.809 147.866 114.826L133.7 114.99L131.2 115.019L131.171 112.519L130.553 59.1159C130.539 57.883 129.476 56.7722 128.026 56.789L108.028 57.0205C106.577 57.0373 105.541 58.1724 105.555 59.4053L106.173 112.808L106.202 115.308L103.702 115.337L89.5361 115.501C88.1162 115.517 86.9327 116.343 86.4616 117.46C86.0012 118.553 86.2589 119.82 87.194 120.69M121.484 148.038C121.484 148.038 121.484 148.038 121.484 148.038ZM121.484 148.038C120.184 149.302 118.007 149.327 116.68 148.094L87.194 120.69M87.194 120.69C87.194 120.689 87.194 120.69 87.194 120.69Z" stroke="#172585" stroke-width="5"/>
</g>
<defs>
<filter id="filter0_d_165_16" x="79.7381" y="54.2888" width="77.9963" height="105.214" filterUnits="userSpaceOnUse" color-interpolation-filters="sRGB">
<feFlood flood-opacity="0" result="BackgroundImageFix"/>
<feColorMatrix in="SourceAlpha" type="matrix" values="0 0 0 0 0 0 0 0 0 0 0 0 0 0 0 0 0 0 127 0" result="hardAlpha"/>
<feOffset dy="4"/>
<feGaussianBlur stdDeviation="2"/>
<feComposite in2="hardAlpha" operator="out"/>
<feColorMatrix type="matrix" values="0 0 0 0 0 0 0 0 0 0 0 0 0 0 0 0 0 0 0.25 0"/>
<feBlend mode="normal" in2="BackgroundImageFix" result="effect1_dropShadow_165_16"/>
<feBlend mode="normal" in="SourceGraphic" in2="effect1_dropShadow_165_16" result="shape"/>
</filter>
</defs>
</svg>
