<svg width="238" height="205" viewBox="0 0 238 205" fill="none" xmlns="http://www.w3.org/2000/svg">
<path d="M183.5 202.5H23C11.9543 202.5 3 193.546 3 182.5V165.5H18C27.3888 165.5 35 157.889 35 148.5V63C35 53.6112 27.3888 46 18 46H3.5V23C3.5 11.9543 12.4543 3 23.5 3H183C194.046 3 203 11.9543 203 23V46H218.5C227.889 46 235.5 53.6112 235.5 63V148.5C235.5 157.889 227.889 165.5 218.5 165.5H203.5V182.5C203.5 193.546 194.546 202.5 183.5 202.5Z" fill="#2E9AD1" stroke="#172585" stroke-width="5"/>
<g clip-path="url(#clip0_165_19)">
<path d="M156.81 114.71L145.401 99.9176H149.222H151.521L151.203 97.6409C150.254 90.8471 147.116 84.5687 142.281 79.8165C137.445 75.0633 131.19 72.113 124.517 71.4521C117.844 70.7912 111.153 72.4598 105.519 76.1814C99.8874 79.9022 95.6431 85.456 93.4541 91.9427C91.2653 98.4288 91.2543 105.482 93.4228 111.976C95.5916 118.469 99.8185 124.037 105.439 127.776C111.06 131.517 117.746 133.207 124.422 132.569C131.095 131.93 137.356 129.002 142.207 124.268C142.905 123.596 143.57 122.889 144.198 122.149L153.683 129.562C152.626 130.866 151.493 132.103 150.29 133.266L150.285 133.271C145.337 138.089 139.324 141.581 132.774 143.448C126.225 145.315 119.332 145.5 112.697 143.99C106.063 142.479 99.882 139.316 94.6975 134.772C89.5126 130.228 85.4813 124.44 82.9608 117.911C80.4402 111.381 79.5089 104.313 80.2499 97.3239C80.991 90.3351 83.3812 83.6435 87.2078 77.8332C91.0341 72.0232 96.1788 67.2731 102.188 63.9924C108.197 60.7122 114.889 58.9994 121.682 59C132.058 59.0143 142.065 63.0174 149.743 70.2423C157.422 77.469 162.218 87.3999 163.174 98.0957L163.337 99.9176H165.166H168.803L156.81 114.71Z" fill="white" stroke="#172585" stroke-width="4"/>
</g>
<defs>
<clipPath id="clip0_165_19">
<rect width="95" height="90" fill="white" transform="translate(78 57)"/>
</clipPath>
</defs>
</svg>
