<svg width="238" height="205" viewBox="0 0 238 205" fill="none" xmlns="http://www.w3.org/2000/svg">
<path d="M183.5 202.5H23C11.9543 202.5 3 193.546 3 182.5V165.5H18C27.3888 165.5 35 157.889 35 148.5V63C35 53.6112 27.3888 46 18 46H3.5V23C3.5 11.9543 12.4543 3 23.5 3H183C194.046 3 203 11.9543 203 23V46H218.5C227.889 46 235.5 53.6112 235.5 63V148.5C235.5 157.889 227.889 165.5 218.5 165.5H203.5V182.5C203.5 193.546 194.546 202.5 183.5 202.5Z" fill="#2E9AD1" stroke="#172585" stroke-width="5"/>
<g filter="url(#filter0_d_580_7)">
<path d="M118.316 51C125.447 50.9992 132.469 52.7972 138.77 56.237C145.071 59.6768 150.459 64.6538 154.462 70.7332C158.466 76.8126 160.964 83.8096 161.739 91.113C162.513 98.4164 161.54 105.804 158.905 112.631C156.27 119.458 152.052 125.516 146.621 130.276C141.189 135.036 134.709 138.354 127.746 139.94C120.784 141.525 113.55 141.33 106.677 139.372C99.8047 137.413 93.502 133.75 88.3197 128.704C86.5725 127.015 84.9663 125.177 83.5182 123.21L96.1374 113.349C97.0541 114.598 98.0739 115.764 99.1853 116.832C103.715 121.255 109.555 123.983 115.769 124.578C121.983 125.172 128.211 123.599 133.453 120.111C138.696 116.623 142.649 111.422 144.68 105.342C146.71 99.262 146.7 92.6555 144.651 86.5822C142.601 80.509 138.631 75.3209 133.378 71.8501C128.124 68.3794 121.892 66.8272 115.68 67.4424C109.468 68.0576 103.636 70.8046 99.1205 75.2429C94.6049 79.6811 91.6669 85.5533 90.7778 91.9176H98.6668L83.2293 111.934L67.0001 91.9176H74.8336C75.8325 80.7425 80.8438 70.354 88.8864 62.7858C96.929 55.2175 107.424 51.0147 118.316 51Z" fill="white"/>
<path d="M83.1998 109.516L95.6156 93.4176H90.7778H89.0537L89.2922 91.7101C90.2263 85.0237 93.3139 78.8468 98.069 74.1731C102.825 69.4986 108.974 66.5992 115.532 65.9497C122.09 65.3002 128.666 66.9397 134.205 70.5986C139.742 74.2569 143.918 79.7192 146.072 86.1026C148.226 92.4855 148.237 99.4272 146.103 105.817C143.969 112.208 139.81 117.684 134.284 121.36C128.757 125.037 122.186 126.699 115.626 126.071C109.068 125.443 102.912 122.566 98.1416 117.909C97.3396 117.138 96.5831 116.319 95.8757 115.457L85.6101 123.479C86.7698 124.946 88.0233 126.331 89.3623 127.625L89.3662 127.629C94.3727 132.505 100.458 136.039 107.088 137.929C113.719 139.818 120.697 140.007 127.413 138.477C134.13 136.948 140.386 133.746 145.632 129.148C150.878 124.55 154.956 118.694 157.505 112.091C160.055 105.487 160.996 98.3387 160.247 91.2712C159.498 84.2037 157.08 77.4358 153.21 71.5582C149.339 65.6809 144.133 60.874 138.051 57.5536C131.97 54.2335 125.194 52.4994 118.317 52.5C107.812 52.5144 97.6833 56.5674 89.9143 63.8782C82.144 71.1902 77.2944 81.2356 76.3277 92.0512L76.2055 93.4176H74.8336H70.1474L83.1998 109.516Z" stroke="#172585" stroke-width="3"/>
</g>
<defs>
<filter id="filter0_d_580_7" x="63" y="51" width="102.997" height="98" filterUnits="userSpaceOnUse" color-interpolation-filters="sRGB">
<feFlood flood-opacity="0" result="BackgroundImageFix"/>
<feColorMatrix in="SourceAlpha" type="matrix" values="0 0 0 0 0 0 0 0 0 0 0 0 0 0 0 0 0 0 127 0" result="hardAlpha"/>
<feOffset dy="4"/>
<feGaussianBlur stdDeviation="2"/>
<feComposite in2="hardAlpha" operator="out"/>
<feColorMatrix type="matrix" values="0 0 0 0 0 0 0 0 0 0 0 0 0 0 0 0 0 0 0.25 0"/>
<feBlend mode="normal" in2="BackgroundImageFix" result="effect1_dropShadow_580_7"/>
<feBlend mode="normal" in="SourceGraphic" in2="effect1_dropShadow_580_7" result="shape"/>
</filter>
</defs>
</svg>
