<svg width="236" height="203" viewBox="0 0 236 203" fill="none" xmlns="http://www.w3.org/2000/svg">
<path d="M182.5 201.5H22C10.9543 201.5 2 192.546 2 181.5V164.5H17C26.3888 164.5 34 156.889 34 147.5V62C34 52.6112 26.3888 45 17 45H2.5V22C2.5 10.9543 11.4543 2 22.5 2H182C193.046 2 202 10.9543 202 22V45H217.5C226.889 45 234.5 52.6112 234.5 62V147.5C234.5 156.889 226.889 164.5 217.5 164.5H202.5V181.5C202.5 192.546 193.546 201.5 182.5 201.5Z" fill="white" stroke="#172585" stroke-width="3" stroke-linecap="round" stroke-dasharray="10 10"/>
</svg>
