<svg width="324" height="201" viewBox="0 0 324 201" fill="none" xmlns="http://www.w3.org/2000/svg">
<rect x="82.5" y="2.5" width="195" height="195.213" rx="17.5" fill="#E0D131" stroke="#615B15" stroke-width="5"/>
<path d="M197.5 100.107C197.5 154.016 153.845 197.713 100 197.713C46.1548 197.713 2.5 154.016 2.5 100.107C2.5 46.1975 46.1548 2.5 100 2.5C153.845 2.5 197.5 46.1975 197.5 100.107Z" fill="#E0D131" stroke="#615B15" stroke-width="5"/>
<path d="M107.86 5.00345C167.953 4.92571 200.103 6.17346 258.578 7.45126L260 190.547C199.073 193.04 165.102 195.361 103.595 194.953C103.595 194.953 47.7677 5.0812 107.86 5.00345Z" fill="#E0D131"/>
<mask id="mask0_161_2" style="mask-type:alpha" maskUnits="userSpaceOnUse" x="275" y="45" width="49" height="122">
<rect x="275" y="45" width="49" height="122" fill="#D9D9D9"/>
</mask>
<g mask="url(#mask0_161_2)">
<path d="M257.5 48.5H296C302.904 48.5 308.5 54.0964 308.5 61V146C308.5 152.904 302.904 158.5 296 158.5H257.5V48.5Z" fill="#E0D131" stroke="#615B15" stroke-width="5"/>
</g>
<path d="M204.75 153.89H117.25C111.758 153.89 107.25 149.381 107.25 143.877V56.2834C107.25 50.7792 111.758 46.27 117.25 46.27H204.75C210.242 46.27 214.75 50.7792 214.75 56.2834V143.877C214.75 149.381 210.242 153.89 204.75 153.89Z" fill="#F44336" stroke="black" stroke-width="5"/>
<path d="M150 122.159V78.001L180.326 100.08L150 122.159Z" fill="white" stroke="black" stroke-width="3"/>
</svg>
