<svg width="160" height="160" viewBox="0 0 160 160" fill="none" xmlns="http://www.w3.org/2000/svg">
<path d="M60.8929 16.125L54.1071 25H105.893L99.1071 16.125C98.5714 15.4375 97.6786 15 96.7143 15H63.25C62.2857 15 61.3929 15.4062 60.8571 16.125H60.8929ZM113.393 7.8125L126.5 25H131.429H148.571H151.429C156.179 25 160 28.3438 160 32.5C160 36.6562 156.179 40 151.429 40H148.571V135C148.571 148.812 135.786 160 120 160H40C24.2143 160 11.4286 148.812 11.4286 135V40H8.57143C3.82143 40 0 36.6562 0 32.5C0 28.3438 3.82143 25 8.57143 25H11.4286H28.5714H33.5L46.6071 7.78125C50.3214 2.9375 56.5714 0 63.25 0H96.7143C103.393 0 109.643 2.9375 113.357 7.78125L113.393 7.8125ZM28.5714 40V135C28.5714 140.531 33.6786 145 40 145H120C126.321 145 131.429 140.531 131.429 135V40H28.5714ZM57.1429 60V125C57.1429 127.75 54.5714 130 51.4286 130C48.2857 130 45.7143 127.75 45.7143 125V60C45.7143 57.25 48.2857 55 51.4286 55C54.5714 55 57.1429 57.25 57.1429 60ZM85.7143 60V125C85.7143 127.75 83.1429 130 80 130C76.8571 130 74.2857 127.75 74.2857 125V60C74.2857 57.25 76.8571 55 80 55C83.1429 55 85.7143 57.25 85.7143 60ZM114.286 60V125C114.286 127.75 111.714 130 108.571 130C105.429 130 102.857 127.75 102.857 125V60C102.857 57.25 105.429 55 108.571 55C111.714 55 114.286 57.25 114.286 60Z" fill="#808080"/>
</svg>
