<svg width="80" height="80" viewBox="0 0 80 80" fill="none" xmlns="http://www.w3.org/2000/svg">
<path d="M30.4464 8.0625L27.0536 12.5H52.9464L49.5536 8.0625C49.2857 7.71875 48.8393 7.5 48.3571 7.5H31.625C31.1429 7.5 30.6964 7.70312 30.4286 8.0625H30.4464ZM56.6964 3.90625L63.25 12.5H65.7143H74.2857H75.7143C78.0893 12.5 80 14.1719 80 16.25C80 18.3281 78.0893 20 75.7143 20H74.2857V67.5C74.2857 74.4062 67.8929 80 60 80H20C12.1071 80 5.71429 74.4062 5.71429 67.5V20H4.28571C1.91071 20 0 18.3281 0 16.25C0 14.1719 1.91071 12.5 4.28571 12.5H5.71429H14.2857H16.75L23.3036 3.89062C25.1607 1.46875 28.2857 0 31.625 0H48.3571C51.6964 0 54.8214 1.46875 56.6786 3.89062L56.6964 3.90625ZM14.2857 20V67.5C14.2857 70.2656 16.8393 72.5 20 72.5H60C63.1607 72.5 65.7143 70.2656 65.7143 67.5V20H14.2857ZM28.5714 30V62.5C28.5714 63.875 27.2857 65 25.7143 65C24.1429 65 22.8571 63.875 22.8571 62.5V30C22.8571 28.625 24.1429 27.5 25.7143 27.5C27.2857 27.5 28.5714 28.625 28.5714 30ZM42.8571 30V62.5C42.8571 63.875 41.5714 65 40 65C38.4286 65 37.1429 63.875 37.1429 62.5V30C37.1429 28.625 38.4286 27.5 40 27.5C41.5714 27.5 42.8571 28.625 42.8571 30ZM57.1429 30V62.5C57.1429 63.875 55.8571 65 54.2857 65C52.7143 65 51.4286 63.875 51.4286 62.5V30C51.4286 28.625 52.7143 27.5 54.2857 27.5C55.8571 27.5 57.1429 28.625 57.1429 30Z" fill="#808080"/>
</svg>
