<svg width="100" height="100" viewBox="0 0 100 100" fill="none" xmlns="http://www.w3.org/2000/svg">
<path d="M8.33337 22.9167C8.33337 20.6155 10.1989 18.75 12.5 18.75H87.5C89.8013 18.75 91.6667 20.6155 91.6667 22.9167V27.0833C91.6667 29.3845 89.8013 31.25 87.5 31.25H12.5C10.1989 31.25 8.33337 29.3845 8.33337 27.0833V22.9167Z" fill="#172585"/>
<path d="M8.33337 47.9167C8.33337 45.6154 10.1989 43.75 12.5 43.75H87.5C89.8013 43.75 91.6667 45.6154 91.6667 47.9167V52.0833C91.6667 54.3846 89.8013 56.25 87.5 56.25H12.5C10.1989 56.25 8.33337 54.3846 8.33337 52.0833V47.9167Z" fill="#172585"/>
<path d="M12.5 68.75C10.1989 68.75 8.33337 70.6154 8.33337 72.9167V77.0833C8.33337 79.3846 10.1989 81.25 12.5 81.25H87.5C89.8013 81.25 91.6667 79.3846 91.6667 77.0833V72.9167C91.6667 70.6154 89.8013 68.75 87.5 68.75H12.5Z" fill="#172585"/>
</svg>
