<svg width="238" height="205" viewBox="0 0 238 205" fill="none" xmlns="http://www.w3.org/2000/svg">
<path d="M183.5 202.5H23C11.9543 202.5 3 193.546 3 182.5V165.5H18C27.3888 165.5 35 157.889 35 148.5V63C35 53.6112 27.3888 46 18 46H3.5V23C3.5 11.9543 12.4543 3 23.5 3H183C194.046 3 203 11.9543 203 23V46H218.5C227.889 46 235.5 53.6112 235.5 63V148.5C235.5 157.889 227.889 165.5 218.5 165.5H203.5V182.5C203.5 193.546 194.546 202.5 183.5 202.5Z" fill="#53FF16" stroke="#1CB803" stroke-width="5"/>
</svg>
