<svg width="103" height="106" viewBox="0 0 103 106" fill="none" xmlns="http://www.w3.org/2000/svg">
<path d="M75.4537 25.06L76.6386 23.8751L75.3302 22.8281C69.2252 17.9434 61.6772 13.9645 52.499 13.9645C30.9599 13.9645 13.499 31.4253 13.499 52.9645C13.499 74.5034 30.9599 91.9644 52.499 91.9644C69.4267 91.9644 83.8448 81.1746 89.2345 66.0974L87.822 65.5925L89.2345 66.0973C89.9541 64.0841 91.9153 62.8965 93.7645 63.2884L98.6554 64.3253L98.6556 64.3254C100.588 64.735 101.692 66.5819 101.158 68.28C94.6524 88.9638 75.333 103.964 52.499 103.964C24.3325 103.964 1.49902 81.131 1.49902 52.9645C1.49902 24.7979 24.3325 1.96445 52.499 1.96445C65.9329 1.96445 76.4422 8.08097 84.0919 14.4874L85.1447 15.3691L86.1157 14.3981L95.0242 5.48956C96.0252 4.48858 97.5305 4.18912 98.8385 4.73088C100.146 5.27258 100.999 6.54875 100.999 7.96445V35.4645C100.999 37.3974 99.4321 38.9645 97.499 38.9645H69.999C68.5838 38.9645 67.3073 38.1118 66.7654 36.8041C66.2239 35.4959 66.5233 33.9904 67.5242 32.9896L75.4537 25.06Z" fill="white" stroke="#A52E00" stroke-width="3"/>
</svg>
