<svg width="529" height="289" viewBox="0 0 529 289" fill="none" xmlns="http://www.w3.org/2000/svg">
<path d="M482.99 118.071V120.571H485.49H513.904C520.827 120.571 526.49 126.259 526.49 133.339V231.053C526.49 238.133 520.827 243.821 513.904 243.821H485.49H482.99V246.321V270.68C482.99 278.628 476.591 285.095 468.644 285.179L438.49 285.5H438.477H310.013H309.99L296.045 285.236C290.581 285.133 286.269 280.56 286.488 275.1L286.493 274.961L286.483 274.822L285.99 267.911L285.99 253H294.714C299.01 253 303.186 251.581 306.593 248.964L309.404 246.804C311.204 245.422 312.749 243.736 313.969 241.822L315.433 239.524C317.429 236.393 318.49 232.756 318.49 229.043L318.49 155V154.914L318.484 154.828L317.835 145.426C317.572 141.612 316.194 137.959 313.871 134.922L313.44 134.359C311.218 131.452 308.223 129.23 304.797 127.945L304.254 127.742C302.064 126.921 299.745 126.5 297.407 126.5H286.026L286.739 77.2826C286.897 66.4036 278.121 57.5 267.241 57.5H95.9896C85.2201 57.5 76.4896 66.2304 76.4896 77L76.4896 247.026V251.288L76.4896 274.93C76.4896 276.714 76.0478 278.47 75.2035 280.042C73.3211 283.546 69.6653 285.732 65.6875 285.732H14.7407C8.81347 285.732 4.00852 280.927 4.00852 275V253.911H11.5653H11.6159L11.6665 253.909L14.6984 253.786C17.164 253.686 19.5883 253.119 21.8425 252.115L22.9514 251.622C24.6269 250.875 26.1887 249.897 27.5908 248.714L28.7652 247.724L28.852 247.65L28.9318 247.57L29.5145 246.98L27.7362 245.223L29.5145 246.98C30.982 245.495 32.2014 243.783 33.1262 241.911L33.9204 240.304L33.9661 240.211L34.004 240.115L35.0097 237.571L35.0583 237.448L35.0937 237.32L35.481 235.923C35.9517 234.226 36.1903 232.473 36.1903 230.712V165.911V165.867L36.1888 165.824L35.686 151.306L35.6848 151.273L35.6827 151.239L35.4072 146.777C35.2354 143.994 34.4689 141.281 33.1595 138.82L32.7805 138.107C31.7116 136.098 30.2992 134.292 28.6072 132.77L27.3272 131.618L25.6552 133.477L27.3272 131.618C26.5516 130.92 25.7212 130.286 24.844 129.721L24.6659 129.606C21.5176 127.578 17.852 126.5 14.1071 126.5H2.5V17C2.5 8.99187 8.99187 2.5 17 2.5H468.49C476.498 2.5 482.99 8.99188 482.99 17V118.071Z" fill="#FF8C00" stroke="#A52E00" stroke-width="5"/>
<path d="M418.873 154.009L420.037 152.832L418.75 151.789C412.613 146.819 405.021 142.768 395.788 142.768C374.114 142.768 356.575 160.546 356.575 182.438C356.575 204.329 374.114 222.107 395.788 222.107C412.82 222.107 427.312 211.121 432.726 195.791L431.312 195.291L432.726 195.791C433.457 193.722 435.437 192.522 437.286 192.919L442.205 193.974L442.205 193.974C444.139 194.389 445.278 196.275 444.73 198.039C438.182 219.111 418.744 234.375 395.788 234.375C367.474 234.375 344.49 211.139 344.49 182.438C344.49 153.736 367.474 130.5 395.788 130.5C409.295 130.5 419.864 136.724 427.559 143.247L428.619 144.146L429.596 143.157L438.555 134.09C439.565 133.067 441.077 132.766 442.388 133.315C443.702 133.866 444.572 135.172 444.572 136.634V164.625C444.572 166.624 442.976 168.214 441.044 168.214H413.387C411.971 168.214 410.681 167.35 410.13 166.005C409.578 164.656 409.886 163.106 410.899 162.081L418.873 154.009Z" fill="white" stroke="#A52E00" stroke-width="3"/>
</svg>
